<svg width="469" height="84" viewBox="0 0 469 84" fill="none" xmlns="http://www.w3.org/2000/svg">
<path d="M16.6773 3.96764C17.1653 1.65501 19.206 0 21.5695 0H462.692C465.915 0 468.296 3.00383 467.56 6.14137L450.444 79.1414C449.914 81.4018 447.898 83 445.576 83H6.16521C2.98838 83 0.617014 80.076 1.27294 76.9676L16.6773 3.96764Z" fill="#074973"/>
<g filter="url(#filter0_i_1_265)">
<path d="M16.6633 3.96846C17.151 1.65545 19.1918 0 21.5557 0H101.015C104.133 0 106.49 2.82154 105.936 5.88921L92.7429 78.8892C92.3128 81.2691 90.241 83 87.8226 83H6.16415C2.98766 83 0.616377 80.0766 1.27171 76.9685L16.6633 3.96846Z" fill="#FFC72C"/>
</g>
<g filter="url(#filter1_d_1_265)">
<path fill-rule="evenodd" clip-rule="evenodd" d="M61.7372 25.591C61.0827 25.591 60.5521 25.0604 60.5521 24.4059V9H25V75.3639H77.1431V25.591L61.7372 25.591ZM62.9222 10.6757V23.2209H75.4674L62.9222 10.6757ZM36.2582 20.8507C38.9087 20.8534 41.3713 22.2199 42.776 24.4675C44.5993 21.5563 48.1298 20.204 51.4313 21.1525C54.7329 22.1011 57.0074 25.121 57.0074 28.556C57.0074 31.9911 54.7329 35.011 51.4313 35.9595C48.1298 36.908 44.5993 35.5557 42.776 32.6445C40.8088 35.7832 36.8861 37.0771 33.4376 35.7251C29.9889 34.3731 27.991 30.7579 28.6811 27.1185C29.3712 23.4792 32.554 20.8463 36.2582 20.8507ZM41.591 28.5537C41.591 28.641 41.5888 28.7282 41.5846 28.8153C41.5803 28.9025 41.5739 28.9895 41.5653 29.0764C41.5567 29.1632 41.5461 29.2498 41.5333 29.3362C41.5205 29.4225 41.5055 29.5085 41.4885 29.594C41.4715 29.6797 41.4524 29.7648 41.4311 29.8494C41.4099 29.9341 41.3867 30.0182 41.3613 30.1017C41.336 30.1852 41.3087 30.268 41.2792 30.3502C41.2498 30.4324 41.2184 30.5138 41.1851 30.5945C41.1517 30.675 41.1163 30.7548 41.079 30.8337C41.0417 30.9126 41.0024 30.9906 40.9612 31.0675C40.9201 31.1445 40.8772 31.2204 40.8323 31.2953C40.7874 31.3701 40.7407 31.4438 40.6922 31.5164C40.6437 31.589 40.5935 31.6603 40.5415 31.7304C40.4895 31.8005 40.4358 31.8693 40.3804 31.9368C40.3251 32.0043 40.2682 32.0703 40.2095 32.1349C40.1509 32.1996 40.0908 32.2628 40.0291 32.3245C39.9674 32.3862 39.9041 32.4464 39.8394 32.505C39.7748 32.5637 39.7088 32.6206 39.6413 32.6759C39.5738 32.7313 39.505 32.785 39.4349 32.837C39.3648 32.889 39.2935 32.9392 39.2209 32.9877C39.1483 33.0362 39.0746 33.0829 38.9998 33.1278C38.9249 33.1727 38.849 33.2156 38.772 33.2567C38.6951 33.2979 38.6172 33.3371 38.5382 33.3745C38.4593 33.4118 38.3796 33.4472 38.299 33.4806C38.2183 33.5139 38.1369 33.5453 38.0547 33.5747C37.9726 33.6041 37.8897 33.6315 37.8062 33.6568C37.7227 33.6822 37.6386 33.7054 37.5539 33.7266C37.4693 33.7479 37.3842 33.767 37.2985 33.784C37.213 33.801 37.127 33.816 37.0407 33.8288C36.9543 33.8416 36.8677 33.8522 36.7809 33.8607C36.694 33.8694 36.607 33.8758 36.5198 33.8801C36.4327 33.8843 36.3455 33.8865 36.2582 33.8865C36.1709 33.8865 36.0836 33.8843 35.9965 33.8801C35.9094 33.8758 35.8223 33.8694 35.7354 33.8607C35.6486 33.8522 35.562 33.8416 35.4757 33.8288C35.3893 33.816 35.3034 33.801 35.2178 33.784C35.1322 33.767 35.047 33.7479 34.9624 33.7266C34.8777 33.7054 34.7936 33.6822 34.7101 33.6568C34.6266 33.6315 34.5438 33.6041 34.4616 33.5747C34.3795 33.5453 34.298 33.5139 34.2174 33.4806C34.1368 33.4472 34.057 33.4118 33.9781 33.3745C33.8992 33.3372 33.8212 33.2979 33.7443 33.2567C33.6673 33.2156 33.5914 33.1727 33.5165 33.1278C33.4417 33.0829 33.368 33.0362 33.2954 32.9877C33.2229 32.9392 33.1516 32.889 33.0815 32.837C33.0113 32.785 32.9425 32.7313 32.875 32.6759C32.8076 32.6206 32.7415 32.5637 32.6769 32.505C32.6122 32.4464 32.549 32.3863 32.4873 32.3245C32.4256 32.2628 32.3654 32.1996 32.3068 32.1349C32.2482 32.0703 32.1912 32.0043 32.1359 31.9368C32.0805 31.8693 32.0268 31.8005 31.9748 31.7304C31.9229 31.6603 31.8726 31.589 31.8241 31.5164C31.7756 31.4438 31.7289 31.3701 31.684 31.2953C31.6392 31.2204 31.5962 31.1445 31.5551 31.0675C31.5139 30.9906 31.4747 30.9126 31.4373 30.8337C31.4 30.7548 31.3647 30.675 31.3312 30.5945C31.2979 30.5138 31.2665 30.4324 31.2372 30.3502C31.2077 30.268 31.1803 30.1852 31.155 30.1017C31.1297 30.0182 31.1064 29.9341 31.0852 29.8494C31.064 29.7648 31.0448 29.6797 31.0279 29.594C31.0108 29.5085 30.9959 29.4225 30.9831 29.3362C30.9703 29.2498 30.9596 29.1632 30.9511 29.0764C30.9425 28.9895 30.936 28.9025 30.9318 28.8153C30.9275 28.7282 30.9254 28.641 30.9254 28.5537C30.9254 28.4664 30.9275 28.3791 30.9318 28.292C30.936 28.2049 30.9425 28.1178 30.9511 28.0309C30.9596 27.9441 30.9703 27.8575 30.9831 27.7712C30.9959 27.6848 31.0108 27.5988 31.0279 27.5133C31.0448 27.4276 31.064 27.3425 31.0852 27.2579C31.1064 27.1732 31.1297 27.0891 31.155 27.0056C31.1803 26.9221 31.2077 26.8393 31.2372 26.7571C31.2665 26.6749 31.2979 26.5935 31.3312 26.5129C31.3647 26.4323 31.4 26.3525 31.4373 26.2736C31.4747 26.1947 31.5139 26.1167 31.5551 26.0398C31.5962 25.9628 31.6392 25.8869 31.684 25.812C31.7289 25.7372 31.7756 25.6635 31.8241 25.5909C31.8726 25.5184 31.9229 25.447 31.9748 25.377C32.0268 25.3068 32.0805 25.238 32.1359 25.1705C32.1912 25.1031 32.2482 25.037 32.3068 24.9724C32.3654 24.9077 32.4256 24.8445 32.4873 24.7828C32.549 24.7211 32.6122 24.6609 32.6769 24.6023C32.7415 24.5437 32.8076 24.4867 32.875 24.4314C32.9425 24.376 33.0113 24.3223 33.0815 24.2703C33.1516 24.2184 33.2228 24.1681 33.2954 24.1196C33.368 24.0711 33.4417 24.0244 33.5165 23.9795C33.5914 23.9347 33.6673 23.8917 33.7443 23.8506C33.8212 23.8094 33.8992 23.7702 33.9781 23.7328C34.057 23.6955 34.1368 23.6602 34.2174 23.6267C34.298 23.5934 34.3795 23.562 34.4616 23.5326C34.5438 23.5032 34.6266 23.4758 34.7101 23.4505C34.7936 23.4252 34.8777 23.4019 34.9624 23.3807C35.047 23.3595 35.1322 23.3403 35.2178 23.3234C35.3034 23.3063 35.3893 23.2914 35.4757 23.2786C35.562 23.2658 35.6486 23.2551 35.7354 23.2466C35.8223 23.238 35.9094 23.2315 35.9965 23.2273C36.0836 23.223 36.1709 23.2209 36.2582 23.2209C36.3455 23.2209 36.4327 23.223 36.5198 23.2273C36.607 23.2315 36.694 23.238 36.7809 23.2466C36.8677 23.2551 36.9543 23.2658 37.0407 23.2786C37.127 23.2914 37.213 23.3063 37.2985 23.3234C37.3842 23.3403 37.4693 23.3595 37.5539 23.3807C37.6386 23.4019 37.7227 23.4252 37.8062 23.4505C37.8897 23.4758 37.9726 23.5032 38.0547 23.5326C38.1369 23.562 38.2183 23.5934 38.299 23.6267C38.3796 23.6602 38.4593 23.6955 38.5382 23.7328C38.6172 23.7702 38.6951 23.8094 38.772 23.8506C38.849 23.8917 38.9249 23.9347 38.9998 23.9795C39.0746 24.0244 39.1483 24.0711 39.2209 24.1196C39.2935 24.1681 39.3648 24.2184 39.4349 24.2703C39.505 24.3223 39.5738 24.376 39.6413 24.4314C39.7088 24.4867 39.7748 24.5437 39.8394 24.6023C39.9041 24.6609 39.9674 24.7211 40.0291 24.7828C40.0908 24.8445 40.1509 24.9077 40.2095 24.9724C40.2682 25.037 40.3251 25.1031 40.3804 25.1705C40.4358 25.238 40.4895 25.3068 40.5415 25.377C40.5935 25.447 40.6437 25.5183 40.6922 25.5909C40.7407 25.6635 40.7874 25.7372 40.8323 25.812C40.8772 25.8869 40.9201 25.9628 40.9612 26.0398C41.0024 26.1167 41.0417 26.1947 41.079 26.2736C41.1163 26.3525 41.1517 26.4323 41.1851 26.5129C41.2184 26.5935 41.2498 26.6749 41.2792 26.7571C41.3086 26.8393 41.336 26.9221 41.3613 27.0056C41.3867 27.0891 41.4099 27.1732 41.4311 27.2579C41.4524 27.3425 41.4715 27.4277 41.4885 27.5133C41.5055 27.5989 41.5205 27.6848 41.5333 27.7712C41.5461 27.8575 41.5567 27.9441 41.5653 28.0309C41.5739 28.1178 41.5803 28.2049 41.5846 28.292C41.5888 28.3791 41.591 28.4664 41.591 28.5537ZM54.6267 28.5537C54.6267 28.641 54.6246 28.7282 54.6203 28.8153C54.6161 28.9025 54.6096 28.9895 54.601 29.0764C54.5925 29.1632 54.5818 29.2498 54.569 29.3362C54.5562 29.4225 54.5413 29.5085 54.5242 29.594C54.5073 29.6797 54.4881 29.7648 54.4669 29.8494C54.4457 29.9341 54.4224 30.0182 54.3971 30.1017C54.3718 30.1852 54.3444 30.268 54.315 30.3502C54.2856 30.4324 54.2542 30.5138 54.2209 30.5945C54.1874 30.675 54.1521 30.7548 54.1148 30.8337C54.0774 30.9126 54.0382 30.9906 53.997 31.0675C53.9559 31.1445 53.9129 31.2204 53.8681 31.2953C53.8232 31.3701 53.7765 31.4438 53.728 31.5164C53.6795 31.589 53.6292 31.6603 53.5773 31.7304C53.5253 31.8005 53.4716 31.8693 53.4162 31.9368C53.3609 32.0043 53.3039 32.0703 53.2453 32.1349C53.1867 32.1996 53.1265 32.2628 53.0648 32.3245C53.0031 32.3862 52.9399 32.4464 52.8752 32.505C52.8106 32.5637 52.7445 32.6206 52.6771 32.6759C52.6096 32.7313 52.5408 32.785 52.4706 32.837C52.4006 32.889 52.3293 32.9392 52.2567 32.9877C52.1841 33.0362 52.1104 33.0829 52.0356 33.1278C51.9607 33.1727 51.8848 33.2156 51.8078 33.2567C51.7309 33.2979 51.6529 33.3371 51.574 33.3745C51.4951 33.4118 51.4153 33.4472 51.3347 33.4806C51.2541 33.5139 51.1726 33.5453 51.0905 33.5747C51.0083 33.6041 50.9255 33.6315 50.842 33.6568C50.7585 33.6822 50.6744 33.7054 50.5897 33.7266C50.5051 33.7479 50.4199 33.767 50.3343 33.784C50.2487 33.801 50.1628 33.816 50.0764 33.8288C49.9901 33.8416 49.9035 33.8522 49.8167 33.8607C49.7298 33.8694 49.6427 33.8758 49.5556 33.8801C49.4685 33.8843 49.3812 33.8865 49.2939 33.8865C49.2066 33.8865 49.1194 33.8843 49.0323 33.8801C48.9451 33.8758 48.8581 33.8694 48.7712 33.8607C48.6844 33.8522 48.5978 33.8416 48.5114 33.8288C48.4251 33.816 48.3391 33.801 48.2536 33.784C48.1679 33.767 48.0828 33.7479 47.9982 33.7266C47.9135 33.7054 47.8294 33.6822 47.7459 33.6568C47.6624 33.6315 47.5796 33.6041 47.4974 33.5747C47.4152 33.5453 47.3338 33.5139 47.2531 33.4806C47.1726 33.4472 47.0928 33.4118 47.0139 33.3745C46.9349 33.3372 46.857 33.2979 46.7801 33.2567C46.7031 33.2156 46.6272 33.1727 46.5523 33.1278C46.4775 33.0829 46.4038 33.0362 46.3312 32.9877C46.2586 32.9392 46.1873 32.889 46.1172 32.837C46.0471 32.785 45.9783 32.7313 45.9108 32.6759C45.8433 32.6206 45.7773 32.5637 45.7127 32.505C45.648 32.4464 45.5847 32.3863 45.523 32.3245C45.4613 32.2628 45.4012 32.1996 45.3426 32.1349C45.2839 32.0703 45.227 32.0043 45.1717 31.9368C45.1163 31.8693 45.0626 31.8005 45.0106 31.7304C44.9586 31.6603 44.9084 31.589 44.8599 31.5164C44.8114 31.4438 44.7647 31.3701 44.7198 31.2953C44.6749 31.2204 44.632 31.1445 44.5909 31.0675C44.5497 30.9906 44.5105 30.9126 44.4731 30.8337C44.4358 30.7548 44.4004 30.675 44.367 30.5945C44.3337 30.5138 44.3023 30.4324 44.2729 30.3502C44.2435 30.268 44.2161 30.1852 44.1908 30.1017C44.1654 30.0182 44.1422 29.9341 44.121 29.8494C44.0997 29.7648 44.0806 29.6797 44.0636 29.594C44.0466 29.5085 44.0316 29.4225 44.0188 29.3362C44.006 29.2498 43.9954 29.1632 43.9868 29.0764C43.9782 28.9895 43.9718 28.9025 43.9675 28.8153C43.9633 28.7282 43.9611 28.641 43.9611 28.5537C43.9611 28.4664 43.9633 28.3791 43.9675 28.292C43.9718 28.2049 43.9782 28.1178 43.9868 28.0309C43.9954 27.9441 44.006 27.8575 44.0188 27.7712C44.0316 27.6848 44.0466 27.5988 44.0636 27.5133C44.0806 27.4276 44.0997 27.3425 44.121 27.2579C44.1422 27.1732 44.1654 27.0891 44.1908 27.0056C44.2161 26.9221 44.2434 26.8393 44.2729 26.7571C44.3023 26.6749 44.3337 26.5935 44.367 26.5129C44.4004 26.4323 44.4358 26.3525 44.4731 26.2736C44.5104 26.1947 44.5497 26.1167 44.5909 26.0398C44.632 25.9628 44.6749 25.8869 44.7198 25.812C44.7647 25.7372 44.8114 25.6635 44.8599 25.5909C44.9084 25.5184 44.9586 25.447 45.0106 25.377C45.0626 25.3068 45.1163 25.238 45.1717 25.1705C45.227 25.1031 45.2839 25.037 45.3426 24.9724C45.4012 24.9077 45.4613 24.8445 45.523 24.7828C45.5847 24.7211 45.648 24.6609 45.7127 24.6023C45.7773 24.5437 45.8433 24.4867 45.9108 24.4314C45.9783 24.376 46.0471 24.3223 46.1172 24.2703C46.1873 24.2184 46.2586 24.1681 46.3312 24.1196C46.4038 24.0711 46.4775 24.0244 46.5523 23.9795C46.6272 23.9347 46.7031 23.8917 46.7801 23.8506C46.857 23.8094 46.9349 23.7702 47.0139 23.7328C47.0928 23.6955 47.1726 23.6602 47.2531 23.6267C47.3338 23.5934 47.4152 23.562 47.4974 23.5326C47.5796 23.5032 47.6624 23.4758 47.7459 23.4505C47.8294 23.4252 47.9135 23.4019 47.9982 23.3807C48.0828 23.3595 48.1679 23.3403 48.2536 23.3234C48.3391 23.3063 48.4251 23.2914 48.5114 23.2786C48.5978 23.2658 48.6844 23.2551 48.7712 23.2466C48.8581 23.238 48.9451 23.2315 49.0323 23.2273C49.1194 23.223 49.2066 23.2209 49.2939 23.2209C49.3812 23.2209 49.4685 23.223 49.5556 23.2273C49.6427 23.2315 49.7298 23.238 49.8167 23.2466C49.9035 23.2551 49.9901 23.2658 50.0764 23.2786C50.1628 23.2914 50.2487 23.3063 50.3343 23.3234C50.4199 23.3403 50.5051 23.3595 50.5897 23.3807C50.6744 23.4019 50.7585 23.4252 50.842 23.4505C50.9255 23.4758 51.0083 23.5032 51.0905 23.5326C51.1726 23.562 51.2541 23.5934 51.3347 23.6267C51.4153 23.6602 51.4951 23.6955 51.574 23.7328C51.6529 23.7702 51.7309 23.8094 51.8078 23.8506C51.8848 23.8917 51.9607 23.9347 52.0356 23.9795C52.1104 24.0244 52.1841 24.0711 52.2567 24.1196C52.3292 24.1681 52.4006 24.2184 52.4706 24.2703C52.5408 24.3223 52.6096 24.376 52.6771 24.4314C52.7445 24.4867 52.8106 24.5437 52.8752 24.6023C52.9399 24.6609 53.0031 24.7211 53.0648 24.7828C53.1265 24.8445 53.1867 24.9077 53.2453 24.9724C53.3039 25.037 53.3609 25.1031 53.4162 25.1705C53.4716 25.238 53.5253 25.3068 53.5773 25.377C53.6292 25.447 53.6795 25.5183 53.728 25.5909C53.7765 25.6635 53.8232 25.7372 53.8681 25.812C53.9129 25.8869 53.9559 25.9628 53.997 26.0398C54.0382 26.1167 54.0774 26.1947 54.1148 26.2736C54.1521 26.3525 54.1874 26.4323 54.2209 26.5129C54.2542 26.5935 54.2856 26.6749 54.315 26.7571C54.3444 26.8393 54.3718 26.9221 54.3971 27.0056C54.4224 27.0891 54.4457 27.1732 54.4669 27.2579C54.4881 27.3425 54.5073 27.4277 54.5242 27.5133C54.5413 27.5989 54.5562 27.6848 54.569 27.7712C54.5818 27.8575 54.5925 27.9441 54.601 28.0309C54.6096 28.1178 54.6161 28.2049 54.6203 28.292C54.6246 28.3791 54.6267 28.4664 54.6267 28.5537ZM73.5879 64.6983C73.5877 65.1252 73.358 65.5193 72.9863 65.7295C72.6146 65.9397 72.1585 65.9338 71.7925 65.7139L60.2238 58.7729H56.9969V59.958C56.9969 60.6125 56.4663 61.1431 55.8118 61.1431H29.7403C29.0858 61.1431 28.5552 60.6125 28.5552 59.958V39.8118C28.5552 39.1573 29.0858 38.6267 29.7403 38.6267H55.8118C56.4663 38.6267 56.9969 39.1573 56.9969 39.8118V40.9969H60.1788L71.7237 32.9159C72.0857 32.6629 72.5584 32.6321 72.9501 32.836C73.3418 33.04 73.5876 33.4448 73.5879 33.8865V64.6983ZM61.7372 56.9171L71.2177 62.6042V36.163L61.7372 42.7994V56.9171ZM54.6267 58.7729V40.9969H30.9254V58.7729H54.6267ZM56.9969 43.367H59.367V56.4028H56.9969V43.367Z" fill="white"/>
</g>
<path d="M143.305 27.7569C140.315 25.4149 136.554 24 132.504 24C122.86 24 115 31.9529 115 41.711C115 51.4692 122.86 59.422 132.504 59.422C136.747 59.422 140.653 57.8607 143.691 55.3236L139.351 50.2982C132.986 55.1773 122.522 51.3228 122.522 41.711C122.522 32.5384 132.407 28.5376 138.965 32.8311L143.305 27.7569Z" fill="white"/>
<path d="M149.959 58.6902V24.5367H156.71V58.6902H149.959Z" fill="white"/>
<path d="M188.728 58.739L169.73 38.7836V58.739H162.979V24.5367H165.1L183.762 43.6627V24.5367H190.512V58.739H188.728Z" fill="white"/>
<path d="M219.3 24.5367H196.781V31.3674H219.3V24.5367ZM196.781 44.5409H215.442V37.7102H196.781V44.5409ZM196.781 58.739H219.155V51.9083H196.781V58.739Z" fill="white"/>
<path d="M251.028 44.2969L251.173 44.3457C254.693 45.5655 256.767 47.2732 256.767 49.1272C256.767 50.0054 255.85 52.5914 253.054 52.5914C251.559 52.5914 247.557 52.5914 243.988 48.7369L239.07 53.4208C241.384 55.9091 244.085 57.6168 247.123 58.5926C249.534 59.3245 251.559 59.422 253.054 59.422C256.091 59.422 258.84 58.1535 260.817 55.9091C262.505 54.0063 263.517 51.518 263.517 49.1272C263.517 46.6877 262.601 44.3945 260.865 42.4429C259.129 40.5401 256.622 39.0275 253.391 37.9054C253.102 37.8078 252.812 37.7102 252.427 37.6126C249.341 36.832 248.135 35.8562 248.087 34.0997C248.039 32.9775 248.376 32.4408 248.666 32.1481C249.534 31.2211 251.221 30.8795 251.655 30.8795C254.597 30.8795 255.995 31.8065 258.165 33.2215L259.37 34.0021L262.89 28.196L261.781 27.4642C259.322 25.8541 256.574 24.0488 251.655 24.0488C249.919 24.0488 246.303 24.7807 243.795 27.4154C242.059 29.2694 241.191 31.6602 241.336 34.3924C241.481 37.6614 242.976 40.2961 245.676 42.1014C247.605 43.4187 249.678 43.9554 250.787 44.2482L251.028 44.2969Z" fill="white"/>
<path d="M267.134 24.5367V31.3674H276.537V58.739H283.288V31.3674H292.642V24.5367H267.134Z" fill="white"/>
<path d="M310.918 31.3186C312.798 31.3186 314.293 32.8799 314.293 34.7827C314.293 36.6856 312.798 38.1981 310.918 38.1981H308.314V45.0288L314.63 58.739H321.815L315.113 44.1018C318.633 42.4917 321.044 38.93 321.044 34.7828C321.044 29.123 316.511 24.4879 310.918 24.4879H297.705V58.6902H304.456V31.3186L310.918 31.3186Z" fill="white"/>
<path d="M349.349 24.5367H326.83V31.3674H349.349V24.5367ZM326.83 44.5409H345.491V37.7102H326.83V44.5409ZM326.83 58.739H349.204V51.9083H326.83V58.739Z" fill="white"/>
<path d="M370.421 24.5367L353.206 58.739H360.777L371.241 37.9541L380.885 58.739H388.359L372.398 24.5367H370.421Z" fill="white"/>
<path d="M419.316 58.739V37.8078L409.624 46.7365L399.931 37.8078V58.739H393.181V24.5367H395.495L409.624 37.515L423.704 24.5367H426.067V58.739H419.316Z" fill="white"/>
<defs>
<filter id="filter0_i_1_265" x="-2.83771" y="0" width="108.855" height="87" filterUnits="userSpaceOnUse" color-interpolation-filters="sRGB">
<feFlood flood-opacity="0" result="BackgroundImageFix"/>
<feBlend mode="normal" in="SourceGraphic" in2="BackgroundImageFix" result="shape"/>
<feColorMatrix in="SourceAlpha" type="matrix" values="0 0 0 0 0 0 0 0 0 0 0 0 0 0 0 0 0 0 127 0" result="hardAlpha"/>
<feOffset dx="-4" dy="4"/>
<feGaussianBlur stdDeviation="2"/>
<feComposite in2="hardAlpha" operator="arithmetic" k2="-1" k3="1"/>
<feColorMatrix type="matrix" values="0 0 0 0 0 0 0 0 0 0 0 0 0 0 0 0 0 0 0.25 0"/>
<feBlend mode="normal" in2="shape" result="effect1_innerShadow_1_265"/>
</filter>
<filter id="filter1_d_1_265" x="21" y="9" width="60.1431" height="74.3639" filterUnits="userSpaceOnUse" color-interpolation-filters="sRGB">
<feFlood flood-opacity="0" result="BackgroundImageFix"/>
<feColorMatrix in="SourceAlpha" type="matrix" values="0 0 0 0 0 0 0 0 0 0 0 0 0 0 0 0 0 0 127 0" result="hardAlpha"/>
<feOffset dy="4"/>
<feGaussianBlur stdDeviation="2"/>
<feComposite in2="hardAlpha" operator="out"/>
<feColorMatrix type="matrix" values="0 0 0 0 0 0 0 0 0 0 0 0 0 0 0 0 0 0 0.25 0"/>
<feBlend mode="normal" in2="BackgroundImageFix" result="effect1_dropShadow_1_265"/>
<feBlend mode="normal" in="SourceGraphic" in2="effect1_dropShadow_1_265" result="shape"/>
</filter>
</defs>
</svg>
